<svg xmlns="http://www.w3.org/2000/svg" width="880" height="312" viewBox="0 0 880 312" font-family="-apple-system, BlinkMacSystemFont, 'Segoe UI', 'Noto Sans', Helvetica, Arial, sans-serif">
<rect x="0.5" y="0.5" width="879" height="149" rx="10" fill="#161b22" stroke="#30363d"/><text x="24" y="32" fill="#e6edf3" font-size="16" font-weight="600" text-anchor="start">Know the system design building blocks and patterns</text><rect x="780.4" y="16" width="75.6" height="22" rx="11" fill="#3fb950" stroke="#3fb950" fill-opacity="0.15"/><text x="818.2" y="31" fill="#3fb950" font-size="11" font-weight="700" text-anchor="middle" letter-spacing="0.5">ON TRACK</text><text x="24" y="54" fill="#9198a1" font-size="12" font-weight="400" text-anchor="start">system-design-fluency · 4 h/wk · milestones 1/4 · criteria 0/2</text><text x="856" y="54" fill="#9198a1" font-size="12" font-weight="600" text-anchor="end">11 wk left</text><rect x="24" y="88" width="832" height="6" rx="3" fill="#262c36"/><rect x="24" y="88" width="145.81443298969072" height="6" rx="3" fill="#4493f8" fill-opacity="0.45"/><line x1="169.8" y1="80" x2="169.8" y2="102" stroke="#e6edf3" stroke-width="1.5"/><text x="169.81443298969072" y="76" fill="#e6edf3" font-size="10" font-weight="600" text-anchor="middle">today</text><circle cx="195.5" cy="91" r="6" fill="#3fb950"/><circle cx="315.6" cy="91" r="7" fill="#4493f8" stroke="#161b22" stroke-width="2"/><circle cx="435.7" cy="91" r="5" fill="#161b22" stroke="#4493f8" stroke-width="2"/><circle cx="615.8" cy="91" r="5" fill="#161b22" stroke="#4493f8" stroke-width="2"/><text x="24" y="114" fill="#9198a1" font-size="11" font-weight="400" text-anchor="start">2026-09-07</text><text x="856" y="114" fill="#9198a1" font-size="11" font-weight="400" text-anchor="end">2026-12-13</text><text x="24" y="136" fill="#e6edf3" font-size="13" font-weight="600" text-anchor="start">Next: Videos: Part 2 — 2026-10-11 (in 17d)</text>
<rect x="0.5" y="162.5" width="879" height="149" rx="10" fill="#161b22" stroke="#30363d"/><text x="24" y="194" fill="#e6edf3" font-size="16" font-weight="600" text-anchor="start">Design a large-scale system end to end, unaided, using a repeatable framework</text><rect x="780.4" y="178" width="75.6" height="22" rx="11" fill="#3fb950" stroke="#3fb950" fill-opacity="0.15"/><text x="818.2" y="193" fill="#3fb950" font-size="11" font-weight="700" text-anchor="middle" letter-spacing="0.5">ON TRACK</text><text x="24" y="216" fill="#9198a1" font-size="12" font-weight="400" text-anchor="start">system-design-practice · 4 h/wk · milestones 0/4 · criteria 0/4</text><text x="856" y="216" fill="#9198a1" font-size="12" font-weight="600" text-anchor="end">30 wk left</text><rect x="24" y="250" width="832" height="6" rx="3" fill="#262c36"/><rect x="24" y="250" width="11.555555555555557" height="6" rx="3" fill="#4493f8" fill-opacity="0.45"/><line x1="35.6" y1="242" x2="35.6" y2="264" stroke="#e6edf3" stroke-width="1.5"/><text x="35.55555555555556" y="238" fill="#e6edf3" font-size="10" font-weight="600" text-anchor="start">today</text><circle cx="235.9" cy="253" r="7" fill="#4493f8" stroke="#161b22" stroke-width="2"/><circle cx="451.6" cy="253" r="5" fill="#161b22" stroke="#4493f8" stroke-width="2"/><circle cx="667.3" cy="253" r="5" fill="#161b22" stroke="#4493f8" stroke-width="2"/><circle cx="856.0" cy="253" r="5" fill="#161b22" stroke="#4493f8" stroke-width="2"/><text x="24" y="276" fill="#9198a1" font-size="11" font-weight="400" text-anchor="start">2026-09-21</text><text x="856" y="276" fill="#9198a1" font-size="11" font-weight="400" text-anchor="end">2027-04-25</text><text x="24" y="298" fill="#e6edf3" font-size="13" font-weight="600" text-anchor="start">Next: Attempts, Easy + Medium (16) — 2026-11-15 (in 52d)</text>
</svg>
