<svg xmlns="http://www.w3.org/2000/svg" width="880" height="324" viewBox="0 0 880 324" font-family="-apple-system, BlinkMacSystemFont, 'Segoe UI', 'Noto Sans', Helvetica, Arial, sans-serif">
<rect x="0.5" y="0.5" width="879" height="155" rx="10" fill="#f6f8fa" stroke="#d0d7de"/><text x="24" y="32" fill="#1f2328" font-size="15" font-weight="600" text-anchor="start">Find and close the named-concept gaps that are costing interviews</text><text x="856" y="32" fill="#cf222e" font-size="13" font-weight="600" text-anchor="end">4 wk left</text><text x="24" y="52" fill="#656d76" font-size="12" font-weight="400" text-anchor="start">interview-gap-coverage · active · 4 h/wk</text><rect x="24" y="84" width="832" height="6" rx="3" fill="#e6eaef"/><rect x="24" y="84" width="176.4848484848485" height="6" rx="3" fill="#0969da" fill-opacity="0.45"/><line x1="200.5" y1="75" x2="200.5" y2="99" stroke="#1f2328" stroke-width="1.5"/><text x="200.4848484848485" y="70" fill="#1f2328" font-size="10" font-weight="600" text-anchor="middle">today</text><circle cx="150.1" cy="87" r="6" fill="#cf222e"/><circle cx="326.5" cy="87" r="6" fill="#1a7f37"/><circle cx="503.0" cy="87" r="5" fill="#f6f8fa" stroke="#0969da" stroke-width="2"/><circle cx="679.5" cy="87" r="5" fill="#f6f8fa" stroke="#0969da" stroke-width="2"/><circle cx="856.0" cy="87" r="5" fill="#f6f8fa" stroke="#0969da" stroke-width="2"/><text x="24" y="112" fill="#656d76" font-size="11" font-weight="400" text-anchor="start">2026-09-08</text><text x="856" y="112" fill="#656d76" font-size="11" font-weight="400" text-anchor="end">2026-10-11</text><text x="24" y="138" fill="#656d76" font-size="12" font-weight="400" text-anchor="start">Milestones 1/5</text><rect x="134.0" y="130" width="55.6" height="8" rx="4" fill="#cf222e"/><rect x="192.6" y="130" width="55.6" height="8" rx="4" fill="#1a7f37"/><rect x="251.2" y="130" width="55.6" height="8" rx="4" fill="#e6eaef"/><rect x="309.8" y="130" width="55.6" height="8" rx="4" fill="#e6eaef"/><rect x="368.4" y="130" width="55.6" height="8" rx="4" fill="#e6eaef"/><text x="452" y="138" fill="#656d76" font-size="12" font-weight="400" text-anchor="start">Criteria 2/7</text><rect x="548.0" y="130" width="41.4" height="8" rx="4" fill="#1a7f37"/><rect x="592.4" y="130" width="41.4" height="8" rx="4" fill="#1a7f37"/><rect x="636.9" y="130" width="41.4" height="8" rx="4" fill="#e6eaef"/><rect x="681.3" y="130" width="41.4" height="8" rx="4" fill="#e6eaef"/><rect x="725.7" y="130" width="41.4" height="8" rx="4" fill="#e6eaef"/><rect x="770.1" y="130" width="41.4" height="8" rx="4" fill="#e6eaef"/><rect x="814.6" y="130" width="41.4" height="8" rx="4" fill="#e6eaef"/>
<rect x="0.5" y="168.5" width="879" height="155" rx="10" fill="#f6f8fa" stroke="#d0d7de"/><text x="24" y="200" fill="#1f2328" font-size="15" font-weight="600" text-anchor="start">Design a large-scale system end to end, unaided, using a repeatable framework</text><text x="856" y="200" fill="#656d76" font-size="13" font-weight="600" text-anchor="end">13 wk left</text><text x="24" y="220" fill="#656d76" font-size="12" font-weight="400" text-anchor="start">system-design-fluency · active · 4 h/wk</text><rect x="24" y="252" width="832" height="6" rx="3" fill="#e6eaef"/><rect x="24" y="252" width="68.61855670103093" height="6" rx="3" fill="#0969da" fill-opacity="0.45"/><line x1="92.6" y1="243" x2="92.6" y2="267" stroke="#1f2328" stroke-width="1.5"/><text x="92.61855670103093" y="238" fill="#1f2328" font-size="10" font-weight="600" text-anchor="middle">today</text><circle cx="195.5" cy="255" r="5" fill="#f6f8fa" stroke="#0969da" stroke-width="2"/><circle cx="375.7" cy="255" r="5" fill="#f6f8fa" stroke="#0969da" stroke-width="2"/><circle cx="555.8" cy="255" r="5" fill="#f6f8fa" stroke="#0969da" stroke-width="2"/><circle cx="735.9" cy="255" r="5" fill="#f6f8fa" stroke="#0969da" stroke-width="2"/><circle cx="856.0" cy="255" r="5" fill="#f6f8fa" stroke="#0969da" stroke-width="2"/><text x="24" y="280" fill="#656d76" font-size="11" font-weight="400" text-anchor="start">2026-09-07</text><text x="856" y="280" fill="#656d76" font-size="11" font-weight="400" text-anchor="end">2026-12-13</text><text x="24" y="306" fill="#656d76" font-size="12" font-weight="400" text-anchor="start">Milestones 0/5</text><rect x="134.0" y="298" width="55.6" height="8" rx="4" fill="#e6eaef"/><rect x="192.6" y="298" width="55.6" height="8" rx="4" fill="#e6eaef"/><rect x="251.2" y="298" width="55.6" height="8" rx="4" fill="#e6eaef"/><rect x="309.8" y="298" width="55.6" height="8" rx="4" fill="#e6eaef"/><rect x="368.4" y="298" width="55.6" height="8" rx="4" fill="#e6eaef"/><text x="452" y="306" fill="#656d76" font-size="12" font-weight="400" text-anchor="start">Criteria 0/4</text><rect x="548.0" y="298" width="74.8" height="8" rx="4" fill="#e6eaef"/><rect x="625.8" y="298" width="74.8" height="8" rx="4" fill="#e6eaef"/><rect x="703.5" y="298" width="74.8" height="8" rx="4" fill="#e6eaef"/><rect x="781.3" y="298" width="74.8" height="8" rx="4" fill="#e6eaef"/>
</svg>
